<svg xmlns="http://www.w3.org/2000/svg" version="1.1" xmlns:xlink="http://www.w3.org/1999/xlink" xmlns:svgjs="http://svgjs.com/svgjs" width="1440" height="560" preserveAspectRatio="none" viewBox="0 0 1440 560"><g mask="url(&quot;#SvgjsMask1038&quot;)" fill="none"><rect width="1440" height="560" x="0" y="0" fill="rgba(229, 231, 232, 1)"></rect><path d="M 0,111 C 96,119.8 288,173.8 480,155 C 672,136.2 768,16.2 960,17 C 1152,17.8 1344,130.6 1440,159L1440 560L0 560z" fill="rgba(255, 255, 255, 1)"></path><path d="M 0,477 C 72,458.4 216,376.4 360,384 C 504,391.6 576,522.6 720,515 C 864,507.4 936,342.4 1080,346 C 1224,349.6 1368,495.6 1440,533L1440 560L0 560z" fill="rgba(95, 111, 237, 1)"></path></g><defs><mask id="SvgjsMask1038"><rect width="1440" height="560" fill="#ffffff"></rect></mask></defs></svg>